# xmcd
#
# Track frame offsets:
#	150
#	17075
#	34542
#	80080
#
# Disc length: 1200 seconds
#
# Revision: 1
# Processed by: cddbd v1.5.2PL0 Copyright (c) Steve Scherf et al.
# Submitted via: dBpowerAMP V4.0
#
DISCID=2504ae04
DTITLE=Melanie C - Yeh Yeh Yeh
DYEAR=2003
DGENRE=Blues
TTITLE0=Yeh Yeh Yeh (Radio Mix)
TTITLE1=Knocked Out
TTITLE2=Yeh Yeh Yeh (Shanghai Surprise Remix)
TTITLE3=DATA
EXTD=
EXTT0=
EXTT1=
EXTT2=
EXTT3=
PLAYORDER=
